<mxfile host="app.diagrams.net" modified="2020-10-05T15:24:55.399Z" agent="5.0 (Windows NT 10.0; Win64; x64) AppleWebKit/537.36 (KHTML, like Gecko) Chrome/85.0.4183.121 Safari/537.36" etag="7BSd8m2p2kaIRSDxEE5d" version="13.7.7" type="github">
  <diagram id="RTLc3jPprGojaGmsn5mG" name="Page-1">
    <mxGraphModel dx="1221" dy="682" grid="1" gridSize="10" guides="1" tooltips="1" connect="1" arrows="1" fold="1" page="1" pageScale="1" pageWidth="827" pageHeight="1169" math="0" shadow="0">
      <root>
        <mxCell id="0" />
        <mxCell id="1" parent="0" />
        <mxCell id="cFBW0MS9uPqBSYgZb__g-45" style="edgeStyle=orthogonalEdgeStyle;rounded=0;orthogonalLoop=1;jettySize=auto;html=1;exitX=0;exitY=0.5;exitDx=0;exitDy=0;entryX=1;entryY=0.5;entryDx=0;entryDy=0;" edge="1" parent="1" source="cFBW0MS9uPqBSYgZb__g-1" target="cFBW0MS9uPqBSYgZb__g-38">
          <mxGeometry relative="1" as="geometry" />
        </mxCell>
        <mxCell id="cFBW0MS9uPqBSYgZb__g-1" value="Деталі" style="rounded=0;whiteSpace=wrap;html=1;" vertex="1" parent="1">
          <mxGeometry x="420" y="110" width="84" height="40" as="geometry" />
        </mxCell>
        <mxCell id="cFBW0MS9uPqBSYgZb__g-5" style="edgeStyle=orthogonalEdgeStyle;rounded=0;orthogonalLoop=1;jettySize=auto;html=1;exitX=0;exitY=0.5;exitDx=0;exitDy=0;entryX=1;entryY=0.5;entryDx=0;entryDy=0;" edge="1" parent="1" source="cFBW0MS9uPqBSYgZb__g-2" target="cFBW0MS9uPqBSYgZb__g-1">
          <mxGeometry relative="1" as="geometry" />
        </mxCell>
        <mxCell id="cFBW0MS9uPqBSYgZb__g-6" style="edgeStyle=orthogonalEdgeStyle;rounded=0;orthogonalLoop=1;jettySize=auto;html=1;exitX=0.5;exitY=0;exitDx=0;exitDy=0;entryX=0.5;entryY=1;entryDx=0;entryDy=0;" edge="1" parent="1" source="cFBW0MS9uPqBSYgZb__g-2" target="cFBW0MS9uPqBSYgZb__g-3">
          <mxGeometry relative="1" as="geometry" />
        </mxCell>
        <mxCell id="cFBW0MS9uPqBSYgZb__g-2" value="Рядок ПД" style="rounded=0;whiteSpace=wrap;html=1;" vertex="1" parent="1">
          <mxGeometry x="610" y="110" width="84" height="40" as="geometry" />
        </mxCell>
        <mxCell id="cFBW0MS9uPqBSYgZb__g-3" value="ПД" style="rounded=0;whiteSpace=wrap;html=1;" vertex="1" parent="1">
          <mxGeometry x="610" y="20" width="84" height="40" as="geometry" />
        </mxCell>
        <mxCell id="cFBW0MS9uPqBSYgZb__g-16" style="edgeStyle=orthogonalEdgeStyle;rounded=0;orthogonalLoop=1;jettySize=auto;html=1;exitX=0.5;exitY=1;exitDx=0;exitDy=0;entryX=0.5;entryY=0;entryDx=0;entryDy=0;" edge="1" parent="1" source="cFBW0MS9uPqBSYgZb__g-7" target="cFBW0MS9uPqBSYgZb__g-15">
          <mxGeometry relative="1" as="geometry" />
        </mxCell>
        <mxCell id="cFBW0MS9uPqBSYgZb__g-7" value="входить в" style="rhombus;whiteSpace=wrap;html=1;" vertex="1" parent="1">
          <mxGeometry x="416" y="200" width="92" height="60" as="geometry" />
        </mxCell>
        <mxCell id="cFBW0MS9uPqBSYgZb__g-8" value="ID" style="ellipse;whiteSpace=wrap;html=1;" vertex="1" parent="1">
          <mxGeometry x="330" y="40" width="76" height="50" as="geometry" />
        </mxCell>
        <mxCell id="cFBW0MS9uPqBSYgZb__g-9" value="Назва" style="ellipse;whiteSpace=wrap;html=1;" vertex="1" parent="1">
          <mxGeometry x="420" y="40" width="76" height="50" as="geometry" />
        </mxCell>
        <mxCell id="cFBW0MS9uPqBSYgZb__g-10" value="Ціна" style="ellipse;whiteSpace=wrap;html=1;" vertex="1" parent="1">
          <mxGeometry x="508" y="40" width="76" height="50" as="geometry" />
        </mxCell>
        <mxCell id="cFBW0MS9uPqBSYgZb__g-11" value="" style="endArrow=none;html=1;entryX=0.5;entryY=1;entryDx=0;entryDy=0;exitX=0.5;exitY=0;exitDx=0;exitDy=0;" edge="1" parent="1" source="cFBW0MS9uPqBSYgZb__g-1" target="cFBW0MS9uPqBSYgZb__g-8">
          <mxGeometry width="50" height="50" relative="1" as="geometry">
            <mxPoint x="390" y="320" as="sourcePoint" />
            <mxPoint x="440" y="270" as="targetPoint" />
          </mxGeometry>
        </mxCell>
        <mxCell id="cFBW0MS9uPqBSYgZb__g-12" value="" style="endArrow=none;html=1;entryX=0.5;entryY=1;entryDx=0;entryDy=0;" edge="1" parent="1" target="cFBW0MS9uPqBSYgZb__g-9">
          <mxGeometry width="50" height="50" relative="1" as="geometry">
            <mxPoint x="460" y="110" as="sourcePoint" />
            <mxPoint x="440" y="270" as="targetPoint" />
          </mxGeometry>
        </mxCell>
        <mxCell id="cFBW0MS9uPqBSYgZb__g-13" value="" style="endArrow=none;html=1;entryX=0.5;entryY=1;entryDx=0;entryDy=0;" edge="1" parent="1" target="cFBW0MS9uPqBSYgZb__g-10">
          <mxGeometry width="50" height="50" relative="1" as="geometry">
            <mxPoint x="460" y="110" as="sourcePoint" />
            <mxPoint x="440" y="270" as="targetPoint" />
          </mxGeometry>
        </mxCell>
        <mxCell id="cFBW0MS9uPqBSYgZb__g-14" value="" style="endArrow=none;html=1;entryX=0.5;entryY=1;entryDx=0;entryDy=0;" edge="1" parent="1" source="cFBW0MS9uPqBSYgZb__g-7" target="cFBW0MS9uPqBSYgZb__g-1">
          <mxGeometry width="50" height="50" relative="1" as="geometry">
            <mxPoint x="390" y="320" as="sourcePoint" />
            <mxPoint x="440" y="270" as="targetPoint" />
          </mxGeometry>
        </mxCell>
        <mxCell id="cFBW0MS9uPqBSYgZb__g-15" value="Підгрупи" style="rounded=0;whiteSpace=wrap;html=1;" vertex="1" parent="1">
          <mxGeometry x="420" y="310" width="84" height="40" as="geometry" />
        </mxCell>
        <mxCell id="cFBW0MS9uPqBSYgZb__g-17" value="ID" style="ellipse;whiteSpace=wrap;html=1;" vertex="1" parent="1">
          <mxGeometry x="390" y="370" width="76" height="50" as="geometry" />
        </mxCell>
        <mxCell id="cFBW0MS9uPqBSYgZb__g-18" value="Назва" style="ellipse;whiteSpace=wrap;html=1;" vertex="1" parent="1">
          <mxGeometry x="466" y="370" width="76" height="50" as="geometry" />
        </mxCell>
        <mxCell id="cFBW0MS9uPqBSYgZb__g-19" value="" style="endArrow=none;html=1;exitX=0.5;exitY=1;exitDx=0;exitDy=0;entryX=0.5;entryY=0;entryDx=0;entryDy=0;" edge="1" parent="1" source="cFBW0MS9uPqBSYgZb__g-15" target="cFBW0MS9uPqBSYgZb__g-17">
          <mxGeometry width="50" height="50" relative="1" as="geometry">
            <mxPoint x="390" y="320" as="sourcePoint" />
            <mxPoint x="440" y="270" as="targetPoint" />
          </mxGeometry>
        </mxCell>
        <mxCell id="cFBW0MS9uPqBSYgZb__g-20" value="" style="endArrow=none;html=1;entryX=0.5;entryY=1;entryDx=0;entryDy=0;exitX=0.5;exitY=0;exitDx=0;exitDy=0;" edge="1" parent="1" source="cFBW0MS9uPqBSYgZb__g-18" target="cFBW0MS9uPqBSYgZb__g-15">
          <mxGeometry width="50" height="50" relative="1" as="geometry">
            <mxPoint x="390" y="320" as="sourcePoint" />
            <mxPoint x="440" y="270" as="targetPoint" />
          </mxGeometry>
        </mxCell>
        <mxCell id="cFBW0MS9uPqBSYgZb__g-28" style="edgeStyle=orthogonalEdgeStyle;rounded=0;orthogonalLoop=1;jettySize=auto;html=1;exitX=0.5;exitY=1;exitDx=0;exitDy=0;entryX=0.5;entryY=0;entryDx=0;entryDy=0;" edge="1" parent="1" source="cFBW0MS9uPqBSYgZb__g-21" target="cFBW0MS9uPqBSYgZb__g-23">
          <mxGeometry relative="1" as="geometry" />
        </mxCell>
        <mxCell id="cFBW0MS9uPqBSYgZb__g-21" value="входить в" style="rhombus;whiteSpace=wrap;html=1;" vertex="1" parent="1">
          <mxGeometry x="560" y="300" width="92" height="60" as="geometry" />
        </mxCell>
        <mxCell id="cFBW0MS9uPqBSYgZb__g-22" value="" style="endArrow=none;html=1;entryX=1;entryY=0.5;entryDx=0;entryDy=0;exitX=0;exitY=0.5;exitDx=0;exitDy=0;" edge="1" parent="1" source="cFBW0MS9uPqBSYgZb__g-21" target="cFBW0MS9uPqBSYgZb__g-15">
          <mxGeometry width="50" height="50" relative="1" as="geometry">
            <mxPoint x="390" y="320" as="sourcePoint" />
            <mxPoint x="440" y="270" as="targetPoint" />
          </mxGeometry>
        </mxCell>
        <mxCell id="cFBW0MS9uPqBSYgZb__g-23" value="Групи" style="rounded=0;whiteSpace=wrap;html=1;" vertex="1" parent="1">
          <mxGeometry x="564" y="430" width="84" height="40" as="geometry" />
        </mxCell>
        <mxCell id="cFBW0MS9uPqBSYgZb__g-24" value="ID" style="ellipse;whiteSpace=wrap;html=1;" vertex="1" parent="1">
          <mxGeometry x="680" y="390" width="76" height="50" as="geometry" />
        </mxCell>
        <mxCell id="cFBW0MS9uPqBSYgZb__g-25" value="Назва" style="ellipse;whiteSpace=wrap;html=1;" vertex="1" parent="1">
          <mxGeometry x="680" y="440" width="76" height="50" as="geometry" />
        </mxCell>
        <mxCell id="cFBW0MS9uPqBSYgZb__g-26" value="" style="endArrow=none;html=1;entryX=1;entryY=0.5;entryDx=0;entryDy=0;exitX=0;exitY=0.5;exitDx=0;exitDy=0;" edge="1" parent="1" source="cFBW0MS9uPqBSYgZb__g-24" target="cFBW0MS9uPqBSYgZb__g-23">
          <mxGeometry width="50" height="50" relative="1" as="geometry">
            <mxPoint x="390" y="320" as="sourcePoint" />
            <mxPoint x="440" y="270" as="targetPoint" />
          </mxGeometry>
        </mxCell>
        <mxCell id="cFBW0MS9uPqBSYgZb__g-27" value="" style="endArrow=none;html=1;exitX=1;exitY=0.5;exitDx=0;exitDy=0;entryX=0;entryY=0.5;entryDx=0;entryDy=0;" edge="1" parent="1" source="cFBW0MS9uPqBSYgZb__g-23" target="cFBW0MS9uPqBSYgZb__g-25">
          <mxGeometry width="50" height="50" relative="1" as="geometry">
            <mxPoint x="390" y="320" as="sourcePoint" />
            <mxPoint x="440" y="270" as="targetPoint" />
          </mxGeometry>
        </mxCell>
        <mxCell id="cFBW0MS9uPqBSYgZb__g-29" value="Марки" style="rounded=0;whiteSpace=wrap;html=1;" vertex="1" parent="1">
          <mxGeometry x="564" y="585" width="84" height="40" as="geometry" />
        </mxCell>
        <mxCell id="cFBW0MS9uPqBSYgZb__g-32" style="edgeStyle=orthogonalEdgeStyle;rounded=0;orthogonalLoop=1;jettySize=auto;html=1;exitX=0.5;exitY=1;exitDx=0;exitDy=0;entryX=0.5;entryY=0;entryDx=0;entryDy=0;" edge="1" parent="1" source="cFBW0MS9uPqBSYgZb__g-30" target="cFBW0MS9uPqBSYgZb__g-29">
          <mxGeometry relative="1" as="geometry" />
        </mxCell>
        <mxCell id="cFBW0MS9uPqBSYgZb__g-30" value="входить в" style="rhombus;whiteSpace=wrap;html=1;" vertex="1" parent="1">
          <mxGeometry x="560" y="500" width="92" height="60" as="geometry" />
        </mxCell>
        <mxCell id="cFBW0MS9uPqBSYgZb__g-31" value="" style="endArrow=none;html=1;entryX=0.5;entryY=1;entryDx=0;entryDy=0;exitX=0.5;exitY=0;exitDx=0;exitDy=0;" edge="1" parent="1" source="cFBW0MS9uPqBSYgZb__g-30" target="cFBW0MS9uPqBSYgZb__g-23">
          <mxGeometry width="50" height="50" relative="1" as="geometry">
            <mxPoint x="390" y="520" as="sourcePoint" />
            <mxPoint x="440" y="470" as="targetPoint" />
          </mxGeometry>
        </mxCell>
        <mxCell id="cFBW0MS9uPqBSYgZb__g-33" value="Назва" style="ellipse;whiteSpace=wrap;html=1;" vertex="1" parent="1">
          <mxGeometry x="680" y="605" width="76" height="50" as="geometry" />
        </mxCell>
        <mxCell id="cFBW0MS9uPqBSYgZb__g-34" value="ID" style="ellipse;whiteSpace=wrap;html=1;" vertex="1" parent="1">
          <mxGeometry x="680" y="555" width="76" height="50" as="geometry" />
        </mxCell>
        <mxCell id="cFBW0MS9uPqBSYgZb__g-35" value="" style="endArrow=none;html=1;entryX=1;entryY=0.5;entryDx=0;entryDy=0;exitX=0;exitY=0.5;exitDx=0;exitDy=0;" edge="1" parent="1" source="cFBW0MS9uPqBSYgZb__g-34" target="cFBW0MS9uPqBSYgZb__g-29">
          <mxGeometry width="50" height="50" relative="1" as="geometry">
            <mxPoint x="390" y="520" as="sourcePoint" />
            <mxPoint x="440" y="470" as="targetPoint" />
          </mxGeometry>
        </mxCell>
        <mxCell id="cFBW0MS9uPqBSYgZb__g-36" value="" style="endArrow=none;html=1;exitX=1;exitY=0.5;exitDx=0;exitDy=0;entryX=-0.005;entryY=0.36;entryDx=0;entryDy=0;entryPerimeter=0;" edge="1" parent="1" source="cFBW0MS9uPqBSYgZb__g-29" target="cFBW0MS9uPqBSYgZb__g-33">
          <mxGeometry width="50" height="50" relative="1" as="geometry">
            <mxPoint x="390" y="520" as="sourcePoint" />
            <mxPoint x="440" y="470" as="targetPoint" />
          </mxGeometry>
        </mxCell>
        <mxCell id="cFBW0MS9uPqBSYgZb__g-38" value="Одиниці виміру" style="rounded=0;whiteSpace=wrap;html=1;" vertex="1" parent="1">
          <mxGeometry x="120" y="110" width="84" height="40" as="geometry" />
        </mxCell>
        <mxCell id="cFBW0MS9uPqBSYgZb__g-39" value="ID" style="ellipse;whiteSpace=wrap;html=1;" vertex="1" parent="1">
          <mxGeometry x="44" y="40" width="76" height="50" as="geometry" />
        </mxCell>
        <mxCell id="cFBW0MS9uPqBSYgZb__g-40" value="Назва" style="ellipse;whiteSpace=wrap;html=1;" vertex="1" parent="1">
          <mxGeometry x="200" y="40" width="76" height="50" as="geometry" />
        </mxCell>
        <mxCell id="cFBW0MS9uPqBSYgZb__g-41" value="" style="endArrow=none;html=1;entryX=0.5;entryY=1;entryDx=0;entryDy=0;exitX=0.5;exitY=0;exitDx=0;exitDy=0;" edge="1" parent="1" source="cFBW0MS9uPqBSYgZb__g-38" target="cFBW0MS9uPqBSYgZb__g-39">
          <mxGeometry width="50" height="50" relative="1" as="geometry">
            <mxPoint x="170" y="70" as="sourcePoint" />
            <mxPoint x="440" y="170" as="targetPoint" />
          </mxGeometry>
        </mxCell>
        <mxCell id="cFBW0MS9uPqBSYgZb__g-42" value="" style="endArrow=none;html=1;entryX=0.5;entryY=1;entryDx=0;entryDy=0;exitX=0.5;exitY=0;exitDx=0;exitDy=0;" edge="1" parent="1" source="cFBW0MS9uPqBSYgZb__g-38" target="cFBW0MS9uPqBSYgZb__g-40">
          <mxGeometry width="50" height="50" relative="1" as="geometry">
            <mxPoint x="390" y="220" as="sourcePoint" />
            <mxPoint x="240" y="150" as="targetPoint" />
          </mxGeometry>
        </mxCell>
        <mxCell id="cFBW0MS9uPqBSYgZb__g-47" style="edgeStyle=orthogonalEdgeStyle;rounded=0;orthogonalLoop=1;jettySize=auto;html=1;exitX=1;exitY=0.5;exitDx=0;exitDy=0;entryX=0;entryY=1;entryDx=0;entryDy=0;" edge="1" parent="1" source="cFBW0MS9uPqBSYgZb__g-44" target="cFBW0MS9uPqBSYgZb__g-1">
          <mxGeometry relative="1" as="geometry">
            <Array as="points">
              <mxPoint x="330" y="240" />
              <mxPoint x="330" y="150" />
            </Array>
          </mxGeometry>
        </mxCell>
        <mxCell id="cFBW0MS9uPqBSYgZb__g-44" value="Залишок" style="rounded=0;whiteSpace=wrap;html=1;" vertex="1" parent="1">
          <mxGeometry x="120" y="220" width="84" height="40" as="geometry" />
        </mxCell>
        <mxCell id="cFBW0MS9uPqBSYgZb__g-50" style="edgeStyle=orthogonalEdgeStyle;rounded=0;orthogonalLoop=1;jettySize=auto;html=1;exitX=0.5;exitY=1;exitDx=0;exitDy=0;entryX=0.5;entryY=0;entryDx=0;entryDy=0;" edge="1" parent="1" source="cFBW0MS9uPqBSYgZb__g-48" target="cFBW0MS9uPqBSYgZb__g-49">
          <mxGeometry relative="1" as="geometry" />
        </mxCell>
        <mxCell id="cFBW0MS9uPqBSYgZb__g-48" value="входить в" style="rhombus;whiteSpace=wrap;html=1;" vertex="1" parent="1">
          <mxGeometry x="116" y="300" width="92" height="60" as="geometry" />
        </mxCell>
        <mxCell id="cFBW0MS9uPqBSYgZb__g-49" value="Склади" style="rounded=0;whiteSpace=wrap;html=1;" vertex="1" parent="1">
          <mxGeometry x="120" y="400" width="84" height="40" as="geometry" />
        </mxCell>
        <mxCell id="cFBW0MS9uPqBSYgZb__g-51" value="" style="endArrow=none;html=1;exitX=0.5;exitY=1;exitDx=0;exitDy=0;entryX=0.5;entryY=0;entryDx=0;entryDy=0;" edge="1" parent="1" source="cFBW0MS9uPqBSYgZb__g-44" target="cFBW0MS9uPqBSYgZb__g-48">
          <mxGeometry width="50" height="50" relative="1" as="geometry">
            <mxPoint x="390" y="220" as="sourcePoint" />
            <mxPoint x="440" y="170" as="targetPoint" />
          </mxGeometry>
        </mxCell>
      </root>
    </mxGraphModel>
  </diagram>
</mxfile>
